HIERARCHY
ROOT Hips
{
 OFFSET 0.000000 0.000000 0.000000
 CHANNELS 6 Xposition Yposition Zposition Yrotation Xrotation Zrotation
 JOINT Chest
 {
  OFFSET 0.000000 9.585900 0.002600
  CHANNELS 3 Yrotation Xrotation Zrotation
  JOINT Chest2
  {
   OFFSET 0.000000 9.601200 -0.005300
   CHANNELS 3 Yrotation Xrotation Zrotation
   JOINT Chest3
   {
    OFFSET 0.000000 9.561800 0.000000
    CHANNELS 3 Yrotation Xrotation Zrotation
    JOINT Chest4
    {
     OFFSET 0.000000 9.552100 0.000000
     CHANNELS 3 Yrotation Xrotation Zrotation
     JOINT Neck
     {
      OFFSET 0.000000 14.453000 0.000000
      CHANNELS 3 Yrotation Xrotation Zrotation
      JOINT Head
      {
       OFFSET 0.000000 8.936500 -0.011300
       CHANNELS 3 Yrotation Xrotation Zrotation
       End Site
       {
        OFFSET 0.000000 17.073600 -0.006000
       }
      }
     }
     JOINT RightCollar
     {
      OFFSET -2.921100 9.558500 0.000000
      CHANNELS 3 Yrotation Xrotation Zrotation
      JOINT RightShoulder
      {
       OFFSET -13.519700 0.000000 0.000000
       CHANNELS 3 Yrotation Xrotation Zrotation
       JOINT RightElbow
       {
        OFFSET 0.000000 -29.696600 0.000000
        CHANNELS 3 Yrotation Xrotation Zrotation
        JOINT RightWrist
        {
         OFFSET 0.000000 -24.004700 0.000000
         CHANNELS 3 Yrotation Xrotation Zrotation
         End Site
         {
          OFFSET 0.000000 -17.728500 0.000000
         }
        }
       }
      }
     }
     JOINT LeftCollar
     {
      OFFSET 2.921100 9.558500 0.000000
      CHANNELS 3 Yrotation Xrotation Zrotation
      JOINT LeftShoulder
      {
       OFFSET 13.519700 0.000000 0.000000
       CHANNELS 3 Yrotation Xrotation Zrotation
       JOINT LeftElbow
       {
        OFFSET 0.000000 -29.696600 0.000000
        CHANNELS 3 Yrotation Xrotation Zrotation
        JOINT LeftWrist
        {
         OFFSET 0.000000 -24.004700 0.000000
         CHANNELS 3 Yrotation Xrotation Zrotation
         End Site
         {
          OFFSET 0.000000 -17.728500 0.000000
         }
        }
       }
      }
     }
    }
   }
  }
 }
 JOINT RightHip
 {
  OFFSET -7.771700 -0.012900 -0.001300
  CHANNELS 3 Yrotation Xrotation Zrotation
  JOINT RightKnee
  {
   OFFSET 0.000000 -40.869800 0.001200
   CHANNELS 3 Yrotation Xrotation Zrotation
   JOINT RightAnkle
   {
    OFFSET 0.000000 -39.717900 0.002100
    CHANNELS 3 Yrotation Xrotation Zrotation
    JOINT RightToe
    {
     OFFSET 0.000000 -4.965400 11.033500
     CHANNELS 3 Yrotation Xrotation Zrotation
     End Site
     {
      OFFSET 0.000000 -1.423100 5.872300
     }
    }
   }
  }
 }
 JOINT LeftHip
 {
  OFFSET 7.771700 -0.012900 -0.001300
  CHANNELS 3 Yrotation Xrotation Zrotation
  JOINT LeftKnee
  {
   OFFSET 0.000000 -40.869800 0.001200
   CHANNELS 3 Yrotation Xrotation Zrotation
   JOINT LeftAnkle
   {
    OFFSET 0.000000 -39.717900 0.002100
    CHANNELS 3 Yrotation Xrotation Zrotation
    JOINT LeftToe
    {
     OFFSET 0.000000 -4.965400 11.033500
     CHANNELS 3 Yrotation Xrotation Zrotation
     End Site
     {
      OFFSET 0.000000 -1.423100 5.872300
     }
    }
   }
  }
 }
}
MOTION
Frames: 9
Frame Time: 0.008333
-50.125971 57.399424 17.134546 160.578746 -11.006318 0.004543 3.514011 8.174032 1.488027 0.171408 0.437048 0.026739 0.297887 0.756574 0.048999 3.056929 7.741148 0.646514 1.153240 18.177503 -0.785408 2.375213 -1.980787 -1.852313 1.926947 6.069763 0.821557 -0.120637 -4.112042 -9.825994 -19.323264 -88.651583 45.955341 -0.631141 9.174358 -28.294904 -5.060297 6.161878 -2.257996 9.075823 -3.580445 5.616259 -178.004474 -83.645612 148.807677 -6.313669 12.098121 8.514175 -9.949184 -61.153801 6.131848 -37.933857 70.268666 -40.430636 -5.371289 -6.167287 0.249453 -0.191875 0.881027 -0.085315 -3.791966 -63.602942 17.579875 40.670470 64.731825 35.300256 -17.395656 -10.370171 3.437214 -0.306794 -1.027180 -0.151681
-50.126525 57.399049 17.133052 160.579306 -11.001798 -0.000323 3.513740 8.180009 1.488803 0.171170 0.439886 0.025539 0.297835 0.754402 0.049653 3.058660 7.740114 0.642943 1.151077 18.189088 -0.802181 2.376727 -1.991101 -1.848969 1.932312 6.063970 0.801121 -0.106014 -4.110995 -9.814686 -19.699226 -88.648144 46.318118 -0.596391 9.209729 -28.241688 -5.059598 6.147661 -2.256478 9.061719 -3.585878 5.628748 -177.888024 -83.653540 148.701036 -6.306409 12.091216 8.516854 -9.957601 -61.157621 6.139982 -37.940818 70.270516 -40.438819 -5.352729 -6.169389 0.254138 -0.201327 0.880101 -0.088419 -3.816954 -63.605012 17.600340 40.684795 64.730934 35.307607 -17.381418 -10.377625 3.443073 -0.258594 -1.041243 -0.136361
-50.128471 57.398498 17.131132 160.579872 -10.995857 0.002336 3.513539 8.184647 1.482028 0.171214 0.439856 0.025357 0.297690 0.754486 0.049063 3.058821 7.734501 0.643429 1.149740 18.196002 -0.810368 2.376509 -1.988068 -1.856439 1.932978 6.059771 0.795310 -0.081694 -4.104345 -9.828975 -19.324003 -88.646894 45.952078 -0.575871 9.231615 -28.211772 -5.059704 6.138879 -2.262720 9.042173 -3.593192 5.649852 -177.878033 -83.658573 148.709394 -6.304096 12.091675 8.516224 -9.950977 -61.165285 6.128383 -37.936110 70.277403 -40.432637 -5.341753 -6.173292 0.258263 -0.202476 0.880707 -0.091925 -3.834528 -63.606436 17.607080 40.706149 64.726446 35.318340 -17.364444 -10.382521 3.453454 -0.282163 -1.045112 -0.143995
-50.130621 57.397742 17.129613 160.579828 -10.986207 0.004779 3.516785 8.185603 1.475416 0.168860 0.434429 0.027423 0.297848 0.764838 0.044852 3.058382 7.723460 0.645769 1.149376 18.204320 -0.819452 2.376645 -1.989038 -1.859073 1.934432 6.061440 0.763889 -0.061975 -4.103875 -9.818394 -17.511412 -88.643097 44.169877 -0.580411 9.231205 -28.198452 -5.065701 6.120470 -2.270110 9.014841 -3.605344 5.679874 -177.847732 -83.681540 148.710423 -6.306618 12.090322 8.523666 -9.951409 -61.176537 6.127670 -37.936647 70.280759 -40.431184 -5.353534 -6.175532 0.258777 -0.208439 0.880647 -0.093921 -3.838466 -63.615260 17.609497 40.722859 64.723340 35.333583 -17.394051 -10.380905 3.457213 -0.268816 -1.050098 -0.141553
-50.133143 57.396786 17.128407 160.586798 -10.973176 0.007125 3.513584 8.183907 1.467850 0.167621 0.428142 0.028890 0.297859 0.764913 0.044615 3.059282 7.729816 0.639132 1.145943 18.205983 -0.821683 2.379181 -1.998624 -1.853637 1.931969 6.054760 0.752839 -0.041757 -4.106829 -9.824128 -18.037403 -88.633803 44.681341 -0.533839 9.265269 -28.143567 -5.067941 6.105252 -2.265227 9.001700 -3.611990 5.692205 -177.731166 -83.685094 148.604776 -6.305188 12.088753 8.533715 -9.956631 -61.191011 6.123396 -37.944456 70.281389 -40.438604 -5.349471 -6.177586 0.260183 -0.214723 0.880910 -0.095195 -3.862734 -63.625881 17.622421 40.738180 64.719140 35.338397 -17.408389 -10.369741 3.459806 -0.262595 -1.057723 -0.137218
-50.136029 57.395687 17.127442 160.601646 -10.957370 0.009709 3.501197 8.179813 1.458481 0.168726 0.428566 0.027583 0.298464 0.775127 0.040927 3.058184 7.719548 0.639240 1.139494 18.206026 -0.825911 2.382343 -1.994043 -1.861444 1.931555 6.045866 0.742741 -0.018659 -4.108499 -9.840619 -17.501933 -88.629626 44.146503 -0.515749 9.278366 -28.112082 -5.076874 6.081379 -2.268432 9.004204 -3.605507 5.706988 -177.482057 -83.674962 148.363229 -6.298191 12.076526 8.542609 -9.964224 -61.208189 6.116346 -37.949492 70.284182 -40.446680 -5.350990 -6.183188 0.268064 -0.218328 0.884098 -0.098727 -3.886692 -63.639079 17.626943 40.745659 64.712335 35.336601 -17.415406 -10.356961 3.458855 -0.258623 -1.063409 -0.133840
-50.139409 57.394450 17.126893 160.625248 -10.937704 0.013066 3.478103 8.166268 1.447674 0.170735 0.442013 0.022944 0.296124 0.763607 0.043346 3.045207 7.726498 0.625950 1.149216 18.202803 -0.824388 2.384867 -1.973518 -1.877862 1.946548 6.031745 0.751269 -0.002213 -4.107044 -9.863033 -16.900970 -88.629728 43.551221 -0.497457 9.294864 -28.078527 -5.063947 6.065238 -2.253875 8.984256 -3.617277 5.720703 -177.208154 -83.669385 148.114349 -6.344367 12.066232 8.568501 -9.970651 -61.230961 6.095599 -37.956267 70.292032 -40.448272 -5.348299 -6.190974 0.268908 -0.224729 0.886616 -0.099426 -3.907919 -63.657700 17.619692 40.745838 64.704337 35.333007 -17.426981 -10.343149 3.450647 -0.251650 -1.067331 -0.125127
-50.141237 57.393297 17.126413 160.651877 -10.920454 0.007608 3.453259 8.154652 1.444215 0.169998 0.439045 0.024340 0.295993 0.763411 0.043219 3.043945 7.725660 0.624611 1.143606 18.212755 -0.838267 2.390966 -1.980966 -1.868204 1.948542 6.032137 0.731581 0.013005 -4.107169 -9.870049 -16.337182 -88.628828 42.999996 -0.481710 9.310459 -28.052927 -5.063400 6.059839 -2.252196 8.921173 -3.650824 5.749827 -177.048612 -83.686479 148.024545 -6.352085 12.076513 8.581285 -9.994789 -61.248892 6.092041 -37.965394 70.299393 -40.451741 -5.344376 -6.197780 0.270010 -0.224277 0.886198 -0.101293 -3.923002 -63.677347 17.610168 40.743059 64.698840 35.330444 -17.413494 -10.336140 3.450345 -0.241277 -1.058316 -0.115272
-50.143799 57.392280 17.124886 160.670558 -10.907576 0.010491 3.440181 8.148400 1.430283 0.169585 0.438742 0.023919 0.295120 0.762949 0.042581 3.036101 7.725310 0.616725 1.149404 18.212689 -0.830638 2.387359 -1.964300 -1.877169 1.957741 6.030954 0.708505 0.027167 -4.109514 -9.860303 -15.672973 -88.633371 42.349017 -0.474035 9.326086 -28.037948 -5.062506 6.051854 -2.238504 8.908308 -3.656043 5.760648 -176.463206 -83.645853 147.470352 -6.317995 12.089229 8.584691 -9.997610 -61.264514 6.077496 -37.985675 70.303250 -40.468334 -5.349369 -6.204207 0.269521 -0.217675 0.887584 -0.099092 -3.920835 -63.692362 17.590067 40.748688 64.694345 35.336705 -17.427794 -10.334856 3.451459 -0.258004 -1.055279 -0.115833
